<svg width="19" height="19" viewBox="0 0 19 19" fill="none" xmlns="http://www.w3.org/2000/svg">
<path d="M9.13586 0C6.65661 0 6.34485 0.0114198 5.37074 0.0548151C4.39663 0.100494 3.73314 0.25352 3.15187 0.479632C2.54216 0.708964 1.98989 1.0687 1.53368 1.53368C1.06898 1.99013 0.709293 2.54233 0.479632 3.15187C0.25352 3.732 0.0993524 4.39663 0.0548151 5.36732C0.0114198 6.34371 0 6.65433 0 9.137C0 11.6174 0.0114198 11.928 0.0548151 12.9021C0.100494 13.8751 0.25352 14.5386 0.479632 15.1198C0.713739 15.7205 1.0255 16.2298 1.53368 16.738C2.04072 17.2462 2.55005 17.5591 3.15073 17.7921C3.73314 18.0182 4.39549 18.1724 5.36846 18.2169C6.34371 18.2603 6.65433 18.2717 9.13586 18.2717C11.6174 18.2717 11.9269 18.2603 12.9021 18.2169C13.8739 18.1712 14.5397 18.0182 15.121 17.7921C15.7303 17.5626 16.2822 17.2029 16.738 16.738C17.2462 16.2298 17.558 15.7205 17.7921 15.1198C18.0171 14.5386 18.1712 13.8751 18.2169 12.9021C18.2603 11.928 18.2717 11.6174 18.2717 9.13586C18.2717 6.65433 18.2603 6.34371 18.2169 5.36846C18.1712 4.39663 18.0171 3.732 17.7921 3.15187C17.5625 2.54231 17.2028 1.9901 16.738 1.53368C16.282 1.06852 15.7297 0.708766 15.1198 0.479632C14.5374 0.25352 13.8728 0.0993524 12.901 0.0548151C11.9257 0.0114198 11.6162 0 9.13357 0H9.137H9.13586ZM8.31705 1.64674H9.137C11.5763 1.64674 11.8652 1.65473 12.8279 1.69927C13.7186 1.73924 14.2028 1.88884 14.5249 2.01331C14.9508 2.1789 15.2557 2.37761 15.5755 2.69736C15.8952 3.01712 16.0928 3.32088 16.2584 3.74799C16.384 4.06888 16.5325 4.55308 16.5724 5.44383C16.617 6.40652 16.6261 6.69544 16.6261 9.13357C16.6261 11.5717 16.617 11.8618 16.5724 12.8245C16.5325 13.7152 16.3829 14.1983 16.2584 14.5203C16.1119 14.917 15.8781 15.2757 15.5744 15.5698C15.2546 15.8895 14.9508 16.0871 14.5237 16.2527C14.204 16.3783 13.7198 16.5268 12.8279 16.5679C11.8652 16.6113 11.5763 16.6215 9.137 16.6215C6.69773 16.6215 6.40766 16.6113 5.44497 16.5679C4.55422 16.5268 4.07117 16.3783 3.74913 16.2527C3.35229 16.1064 2.99328 15.8731 2.6985 15.5698C2.39445 15.2752 2.16031 14.9162 2.01331 14.5192C1.88884 14.1983 1.73924 13.7141 1.69927 12.8233C1.65587 11.8606 1.64674 11.5717 1.64674 9.13129C1.64674 6.69201 1.65587 6.40424 1.69927 5.44154C1.74038 4.5508 1.88884 4.0666 2.01446 3.74456C2.18004 3.3186 2.37875 3.01369 2.6985 2.69394C3.01826 2.37418 3.32203 2.17662 3.74913 2.01103C4.07117 1.88541 4.55422 1.73695 5.44497 1.69584C6.28775 1.65702 6.61436 1.6456 8.31705 1.64445V1.64674ZM14.0133 3.16329C13.8693 3.16329 13.7267 3.19165 13.5937 3.24674C13.4607 3.30184 13.3399 3.38259 13.2381 3.48439C13.1363 3.58619 13.0555 3.70705 13.0004 3.84006C12.9453 3.97307 12.917 4.11562 12.917 4.25959C12.917 4.40356 12.9453 4.54612 13.0004 4.67913C13.0555 4.81214 13.1363 4.933 13.2381 5.0348C13.3399 5.1366 13.4607 5.21735 13.5937 5.27244C13.7267 5.32754 13.8693 5.3559 14.0133 5.3559C14.304 5.3559 14.5829 5.24039 14.7885 5.0348C14.9941 4.8292 15.1096 4.55035 15.1096 4.25959C15.1096 3.96884 14.9941 3.68999 14.7885 3.48439C14.5829 3.27879 14.304 3.16329 14.0133 3.16329ZM9.137 4.44459C8.5147 4.43489 7.89669 4.54907 7.31894 4.7805C6.74119 5.01193 6.21525 5.35598 5.77175 5.79262C5.32824 6.22926 4.97603 6.74976 4.73562 7.32383C4.4952 7.89789 4.37139 8.51405 4.37139 9.13643C4.37139 9.7588 4.4952 10.375 4.73562 10.949C4.97603 11.5231 5.32824 12.0436 5.77175 12.4802C6.21525 12.9169 6.74119 13.2609 7.31894 13.4924C7.89669 13.7238 8.5147 13.838 9.137 13.8283C10.3687 13.809 11.5434 13.3063 12.4076 12.4285C13.2718 11.5507 13.7562 10.3683 13.7562 9.13643C13.7562 7.9046 13.2718 6.72218 12.4076 5.84438C11.5434 4.96658 10.3687 4.46381 9.137 4.44459ZM9.137 6.09019C9.94476 6.09019 10.7194 6.41107 11.2906 6.98224C11.8618 7.55342 12.1827 8.3281 12.1827 9.13586C12.1827 9.94362 11.8618 10.7183 11.2906 11.2895C10.7194 11.8606 9.94476 12.1815 9.137 12.1815C8.32924 12.1815 7.55456 11.8606 6.98339 11.2895C6.41221 10.7183 6.09133 9.94362 6.09133 9.13586C6.09133 8.3281 6.41221 7.55342 6.98339 6.98224C7.55456 6.41107 8.32924 6.09019 9.137 6.09019Z" fill="white"/>
</svg>
