<svg width="19" height="19" viewBox="0 0 19 19" fill="none" xmlns="http://www.w3.org/2000/svg">
<path fill-rule="evenodd" clip-rule="evenodd" d="M9.18078 0C4.13779 0 0.0449219 4.09286 0.0449219 9.13586C0.0449219 14.1788 4.13779 18.2717 9.18078 18.2717C14.2146 18.2717 18.3166 14.1788 18.3166 9.13586C18.3166 4.09286 14.2146 0 9.18078 0ZM15.215 4.21163C16.3397 5.58118 16.9622 7.29412 16.9794 9.0662C16.7213 9.01709 14.145 8.49178 11.5492 8.81839C11.4899 8.69048 11.4396 8.55116 11.3802 8.41298C11.2215 8.03613 11.0434 7.65014 10.8652 7.28242C13.7384 6.11417 15.0471 4.42975 15.2162 4.21049L15.215 4.21163ZM9.18078 1.34754C11.1621 1.34754 12.9756 2.08983 14.354 3.30946C14.2146 3.50817 13.035 5.08296 10.2611 6.12331C8.98207 3.77539 7.56602 1.85229 7.3479 1.55538C7.9487 1.4151 8.56382 1.34534 9.18078 1.34754ZM5.86104 2.08069C6.90672 3.52992 7.87275 5.03499 8.75482 6.58924C5.10847 7.55992 1.88808 7.54051 1.54092 7.54051C1.79199 6.35939 2.3125 5.25222 3.06187 4.30537C3.81123 3.35851 4.76919 2.59755 5.86104 2.08183V2.08069ZM1.37305 9.14728V8.90746C1.70993 8.91888 5.4956 8.96799 9.38976 7.7986C9.61701 8.23369 9.82486 8.68021 10.0236 9.12558L9.71523 9.21465C5.69317 10.5131 3.55309 14.0601 3.3738 14.3581C2.08544 12.9279 1.37265 11.0711 1.37305 9.14613V9.14728ZM9.18078 16.9436C7.44673 16.9463 5.7619 16.3673 4.39587 15.2991C4.53291 15.0114 6.11912 11.96 10.518 10.424C10.5386 10.4137 10.5477 10.4137 10.5683 10.4046C11.3099 12.319 11.867 14.2998 12.2322 16.3201C11.2683 16.7342 10.2298 16.9464 9.18078 16.9436ZM13.5317 15.6063C13.4518 15.1301 13.035 12.8519 12.0152 10.0472C14.4624 9.66117 16.6025 10.295 16.8697 10.384C16.7033 11.4377 16.3207 12.4455 15.7461 13.3443C15.1715 14.243 14.4172 15.0131 13.5306 15.6063H13.5317Z" fill="white"/>
</svg>
