<!DOCTYPE svg PUBLIC "-//W3C//DTD SVG 1.1//EN" "http://www.w3.org/Graphics/SVG/1.1/DTD/svg11.dtd">
<!-- Uploaded to: SVG Repo, www.svgrepo.com, Transformed by: SVG Repo Mixer Tools -->
<svg height="64px" width="64px" version="1.1" id="Layer_1" xmlns="http://www.w3.org/2000/svg" xmlns:xlink="http://www.w3.org/1999/xlink" viewBox="-153.6 -153.6 819.20 819.20" xml:space="preserve" fill="#000000">
<g id="SVGRepo_bgCarrier" stroke-width="0"/>
<g id="SVGRepo_tracerCarrier" stroke-linecap="round" stroke-linejoin="round"/>
<g id="SVGRepo_iconCarrier"> <g> <polygon style="fill:#F95428;" points="393.049,17.46 379.8,123.343 355.522,99.066 287.263,167.325 244.312,210.263 200.234,166.185 293.087,73.344 311.444,54.987 295.234,38.777 287.166,30.709 295.804,29.629 "/> <polygon style="fill:#F95428;" points="400.79,247.62 425.08,271.898 380.188,277.516 319.197,285.147 332.433,179.264 356.724,203.542 414.209,146.044 467.921,92.332 512,136.411 "/> </g> <path style="fill:#70E5CF;" d="M473.198,410.524l-28.221-18.813l-29.641-19.766l-0.339-0.221l-26.487-17.668l-23.7-15.791 l-32.272,22.931l-8.221,5.837l-8.886,6.319l-18.436,13.119c-8.612-4.886-17.446-10.476-26.371-16.651 c-15.414-10.658-31.114-23.035-46.487-36.547c-9.993-8.755-19.857-18.006-29.406-27.556 c-32.755-32.755-61.926-69.093-80.753-102.264l13.107-18.449l6.307-8.873l5.863-8.235l22.931-32.26l-13.993-20.99L128.388,84.94 l-2.293-3.44L104.83,49.609L89.925,27.251l0.013-0.013L79.463,11.552L47.008,26.926l-8.91,4.221l-4.509,10.944L0,123.665 l24.234,41.197c0.677,1.147,1.355,2.28,2.046,3.44c0.886,1.485,1.785,2.983,2.697,4.469 c42.97,70.838,104.426,142.744,172.151,203.564c14.905,13.381,30.11,26.228,45.484,38.409 c13.068,10.332,26.266,20.195,39.503,29.484s26.514,18.032,39.764,26.123c2.098,1.276,4.182,2.579,6.267,3.817 c1.147,0.69,2.293,1.381,3.44,2.046l41.197,24.234l81.574-33.589l10.944-4.509l4.221-8.912l15.374-32.455L473.198,410.524z"/> <path style="fill:#35D8B9;" d="M363.896,476.216c-1.147-0.665-2.293-1.355-3.44-2.046c-2.084-1.238-4.17-2.541-6.267-3.817 c-13.25-8.09-26.527-16.833-39.764-26.123c-13.237-9.289-26.435-19.153-39.503-29.484c-15.375-12.183-30.578-25.029-45.484-38.409 c-67.726-60.821-129.182-132.726-172.152-203.565c-0.912-1.485-1.811-2.983-2.697-4.469c-0.69-1.16-1.367-2.293-2.046-3.44 L28.31,123.666l33.589-81.574l4.509-10.944l8.912-4.221l10.949-5.186l-6.803-10.188L47.009,26.927l-8.912,4.22l-4.509,10.944 L0,123.665l24.234,41.197c0.677,1.147,1.355,2.28,2.046,3.44c0.886,1.485,1.785,2.983,2.697,4.469 c42.97,70.838,104.426,142.744,172.151,203.564c14.905,13.381,30.11,26.228,45.484,38.409 c13.068,10.332,26.266,20.195,39.503,29.484s26.514,18.032,39.764,26.123c2.098,1.276,4.182,2.579,6.267,3.817 c1.147,0.69,2.293,1.381,3.44,2.046l41.197,24.234l16.654-6.858L363.896,476.216z"/> <g> <polygon style="fill:#19BA9B;" points="139.253,167.899 133.39,176.134 127.085,185.006 69.484,96.969 33.589,42.092 38.097,31.147 47.009,26.926 "/> <polygon style="fill:#19BA9B;" points="473.523,453.441 469.302,462.353 458.358,466.86 390.464,422.445 315.43,373.352 324.317,367.033 332.538,361.196 "/> </g> </g>
</svg>